<svg width="852" height="393" viewBox="0 0 852 393" fill="none" xmlns="http://www.w3.org/2000/svg">
<rect width="852" height="393" fill="#1E1E1E"/>
<g clip-path="url(#clip0_0_1)">
<rect width="393" height="852" transform="matrix(0 1 -1 0 852 0)" fill="#7A0000"/>
<path d="M196.587 212L160 47H226L196.587 212Z" fill="white" stroke="black"/>
<path d="M275.185 282L258 363H289L275.185 282Z" fill="white" stroke="black"/>
<path d="M568.185 282L551 363H582L568.185 282Z" fill="white" stroke="black"/>
<path d="M646.587 212L610 47H676L646.587 212Z" fill="white" stroke="black"/>
<path d="M160.173 47L142 0H247L225.798 47H160.173Z" fill="#FFDAE1" fill-opacity="0.64" stroke="#D23C5F" stroke-opacity="0.64"/>
<path d="M290 363L299 393H247L257.5 363H290Z" fill="#FFDAE1" fill-opacity="0.64" stroke="#D23C5F" stroke-opacity="0.64"/>
<path d="M583 363L592 393H540L550.5 363H583Z" fill="#FFDAE1" fill-opacity="0.64" stroke="#D23C5F" stroke-opacity="0.64"/>
<path d="M610.173 47L592 0H697L675.798 47H610.173Z" fill="#FFDAE1" fill-opacity="0.64" stroke="#D23C5F" stroke-opacity="0.64"/>
<ellipse cx="426" cy="196.5" rx="113" ry="126.5" fill="black"/>
<path d="M514 275H338L365.195 393H482.187L514 275Z" fill="#FF2142" stroke="#AD0000"/>
<path d="M432.321 312H418.679L425.5 402.353L432.321 312Z" fill="#1E1E1E" stroke="#1E1E1E"/>
</g>
<defs>
<clipPath id="clip0_0_1">
<rect width="393" height="852" fill="white" transform="matrix(0 1 -1 0 852 0)"/>
</clipPath>
</defs>
</svg>
